<svg xmlns="http://www.w3.org/2000/svg" width="840.286" height="868.248"><path d="M771.559 521.328c15.415 3.475 43.3 12.9 53.165 30.66 7.55 13.59 14.84 31.68 10.575 67.955-3.025 25.675-13.59 126.855-28.695 146.485 0 0-9.055 9.07-16.61 12.085-7.555 3.02-34.73-1.51-42.285-1.51s23.85-255.675 23.85-255.675" fill="#8A8B8A"/><path d="M771.559 521.328c15.415 3.475 43.3 12.9 53.165 30.66 7.55 13.59 14.84 31.68 10.575 67.955-3.025 25.675-13.59 126.855-28.695 146.485 0 0-9.055 9.07-16.61 12.085-7.555 3.02-34.73-1.51-42.285-1.51s23.85-255.675 23.85-255.675z" stroke="#1A1919" stroke-width="7.5" stroke-linecap="round" stroke-linejoin="round" fill="none"/><path d="M684.059 512.578c3.75 0 67.14.025 87.5 8.75 17.5 7.5 37.5 16.25 40 40s-7.5 167.5-28.75 196.25c-5 3.75-6.25 12.5-21.25 17.5s-102.5-5-102.5-5l25-257.5" fill="#4D7BB1"/><path d="M684.059 512.578c3.75 0 67.14.025 87.5 8.75 17.5 7.5 37.5 16.25 40 40s-7.5 167.5-28.75 196.25c-5 3.75-6.25 12.5-21.25 17.5s-102.5-5-102.5-5l25-257.5" fill="#4D7BB1"/><path d="M811.559 561.328c-2.5-23.75-22.5-32.5-40-40-12.07-5.17-39.26-7.29-60.185-8.15-10.73 3.1-18.035 5.585-18.035 5.585l19.64-1.51c7.545 0 75.505 22.655 80.04 36.245 4.525 13.59-10.58 175.18-22.66 199.34-4.18 8.36-7.975 16.145-11.185 22.795.905-.16 1.735-.34 2.385-.555 15-5 16.25-13.75 21.25-17.5 21.25-28.75 31.25-172.5 28.75-196.25" fill="#7A97C1"/><path d="M684.059 512.578c3.75 0 67.14.025 87.5 8.75 17.5 7.5 37.5 16.25 40 40s-7.5 167.5-28.75 196.25c-5 3.75-6.25 12.5-21.25 17.5s-102.5-5-102.5-5z" stroke="#1A1919" stroke-width="7.5" stroke-linecap="round" stroke-linejoin="round" fill="none"/><path d="M222.124 659.073c5 1.25 48.75 26.25 61.25 50l13.75-15s-28.75-37.5-35-41.25-46.25 3.75-46.25 3.75l6.25 2.5" fill="#FFFFFE"/><path d="M222.124 659.073c5 1.25 48.75 26.25 61.25 50l13.75-15s-28.75-37.5-35-41.25-46.25 3.75-46.25 3.75z" stroke="#1A1919" stroke-width="7.5" stroke-linecap="round" stroke-linejoin="round" fill="none"/><path d="M593.374 367.823c5 1.25 12.5 2.5 16.25 5s17.5 27.5 21.25 35c2.5 0 51.25 43.75 66.25 66.25s-30 295-31.25 298.75-1.25 1.25-1.25 3.75-245-38.75-245-38.75c-10-18.75-42.5-102.5-48.75-126.25-2.5 2.5-18.75 52.5-27.5 62.5-10.32 11.785-37.5 41.25-55 51.25 0-2.5-11.275-28.36-25.845-42.93-18.65-18.645-45.405-29.57-51.655-29.57 0 0-1.25-6.25 2.5-7.5s47.5-16.25 47.5-16.25c0-3.75 1.25-18.75 7.5-18.75s10-2.5 10-2.5c3.75-7.5 56.25-130 61.25-137.5 0-5 17.5-30 17.5-30s27.5-18.75 35-22.5 201.25-50 201.25-50" fill="#464D5A"/><path d="M593.374 367.823c5 1.25 12.5 2.5 16.25 5s17.5 27.5 21.25 35c2.5 0 51.25 43.75 66.25 66.25s-30 295-31.25 298.75-1.25 1.25-1.25 3.75-245-38.75-245-38.75c-10-18.75-42.5-102.5-48.75-126.25-2.5 2.5-18.75 52.5-27.5 62.5-10.32 11.785-37.5 41.25-55 51.25 0-2.5-11.275-28.36-25.845-42.93-18.65-18.645-45.405-29.57-51.655-29.57 0 0-1.25-6.25 2.5-7.5s47.5-16.25 47.5-16.25c0-3.75 1.25-18.75 7.5-18.75s10-2.5 10-2.5c3.75-7.5 56.25-130 61.25-137.5 0-5 17.5-30 17.5-30s27.5-18.75 35-22.5 201.25-50 201.25-50z" stroke="#1A1919" stroke-width="7.5" stroke-linecap="round" stroke-linejoin="round" fill="none"/><path d="M407.124 440.323c0 15 11.25 158.75 38.75 220 12.5-11.25 122.5-211.25 142.5-241.25-1.25-5-108.75-13.75-113.75-13.75s-67.5 35-67.5 35" fill="#FFFFFE"/><path d="M407.124 440.323c0 15 11.25 158.75 38.75 220 12.5-11.25 122.5-211.25 142.5-241.25-1.25-5-108.75-13.75-113.75-13.75s-67.5 35-67.5 35z" stroke="#1A1919" stroke-width="7.5" stroke-linecap="round" stroke-linejoin="round" fill="none"/><path d="M445.874 660.323c4.365-3.93 20.63-30.895 40.785-65.575.44-22.93.645-50.315-.785-53.175-2.5-5-5-15-5-15s8.47-10.69 12.5-18.75c6.25-12.5 13.75-18.75 11.25-25s-8.75-26.25-8.75-26.25-30.625-3.125-37.5 3.75c-4.76 4.76-16.25 20-16.25 20s-1.25 37.5 0 42.5c0 0-12.52 44.72-16.385 67.58 5.405 26.845 12.065 51.945 20.135 69.92" fill="#D8127D"/><path d="M445.874 660.323c4.365-3.93 20.63-30.895 40.785-65.575.44-22.93.645-50.315-.785-53.175-2.5-5-5-15-5-15s8.47-10.69 12.5-18.75c6.25-12.5 13.75-18.75 11.25-25s-8.75-26.25-8.75-26.25-30.625-3.125-37.5 3.75c-4.76 4.76-16.25 20-16.25 20s-1.25 37.5 0 42.5c0 0-12.52 44.72-16.385 67.58 5.405 26.845 12.065 51.945 20.135 69.92zm-1.25-141.25c3.75 0 36.25 7.5 36.25 7.5m-38.75-46.25s-21.25 17.5-25 25m88.75-18.75c1.25 3.75 18.75 27.5 20 35m-247.5 86.25c25 10 52.5-3.75 60-8.75m6.25-120c-1.25 12.5 17.5 102.5 26.25 132.5" stroke="#1A1919" stroke-width="7.5" stroke-linecap="round" stroke-linejoin="round" fill="none"/><path d="M288.374 725.323c-1.25 1.25-16.25 6.25-16.25 6.25s-17.5 12.5-25 17.5-23.75 6.25-30 7.5-15-16.25 5-25l-1.25-7.5-35 6.25 1.25 7.5s5 17.5-3.75 30l-11.25-2.5-8.75-13.75c0 11.25-3.75 17.5-8.75 20 0 0-13.75-5-16.25-15 0 0-4.675 14.385-11.25 10-3.75-2.5-8.75-7.5-12.5-13.75l-5 8.75s-10-10-11.25-17.5 2.5-22.5 2.5-22.5 8.75-13.75 12.5-13.75c1.25-3.75 10-11.25 10-11.25l10-5 8.75-10 10-5 11.25-12.5s28.75-16.25 47.5-11.25 68.75 35 77.5 72.5" fill="#F4BB9D"/><path d="M288.374 725.323c-1.25 1.25-16.25 6.25-16.25 6.25s-17.5 12.5-25 17.5-23.75 6.25-30 7.5-15-16.25 5-25l-1.25-7.5-35 6.25 1.25 7.5s5 17.5-3.75 30l-11.25-2.5-8.75-13.75c0 11.25-3.75 17.5-8.75 20 0 0-13.75-5-16.25-15 0 0-4.675 14.385-11.25 10-3.75-2.5-8.75-7.5-12.5-13.75l-5 8.75s-10-10-11.25-17.5 2.5-22.5 2.5-22.5 8.75-13.75 12.5-13.75c1.25-3.75 10-11.25 10-11.25l10-5 8.75-10 10-5 11.25-12.5s28.75-16.25 47.5-11.25 68.75 35 77.5 72.5zm-173.75-11.25c0 3.75-2.5 16.25-2.5 23.75s2.5 15 2.5 15m21.25-51.25c-1.25 7.5-3.75 21.25-3.75 27.5s2.5 22.5 6.25 27.5m15-75c0 8.75-2.5 26.25-2.5 31.25s8.75 30 8.75 30l6.25 10m20-60c0 8.75-7.5 25-7.5 25l7.5 16.25m1.25-35c3.75 0 13.75-6.25 13.75-6.25m21.25 38.75c6.25-2.5 10-3.75 10-3.75l6.25-15-5-8.75m152.5-276.25-20 55 25 18.75m17.5-11.25c-2.5 3.75-30 23.75-33.75 33.75s26.25 110 65 146.25m187.5-268.75c1.25 5-1.25 77.5-2.5 81.25 0 0-50 25-57.5 32.5m-20-20c2.5 5 35 40 38.75 43.75-2.5 10-117.5 115-143.75 145-7.5 12.5 0 45 2.5 56.25m5-83.75s-10 18.75-7.5 27.5m80-50c11.25 8.75 72.5 21.25 105 18.75m-150 59.375c0 5.865-4.755 10.625-10.625 10.625s-10.625-4.76-10.625-10.625c0-5.87 4.755-10.625 10.625-10.625s10.625 4.755 10.625 10.625z" stroke="#1A1919" stroke-width="7.5" stroke-linecap="round" stroke-linejoin="round" fill="none"/><path d="M330.874 121.573c-11.25 30-13.75 46.25-13.75 46.25s-11.25 25-11.25 30l15-11.25s-15 27.5-15 33.75 33.75-17.5 37.5-18.75 317.5 136.25 317.5 136.25 7.5-8.75 17.5-21.25 36.25-46.25 36.25-65-2.5-26.25-2.5-26.25c.405-49.6-3.75-98.75-30-118.75 3.75-1.25 22.5 5 26.25 5 0-3.75-17.5-33.75-45-37.5 1.25-6.25 13.75-12.5 18.75-13.75 0 0-30-22.5-51.25-12.5-12.5-11.25-28.75-26.25-36.25-30s-27.5-11.25-37.5-12.5l6.25 10c-7.5-6.25-46.25-15-61.25-10 0 3.75 5 3.75 5 3.75-27.925-3.35-142.905 18.345-176.25 112.5" fill="#2D2118"/><path d="M330.874 121.573c-11.25 30-13.75 46.25-13.75 46.25s-11.25 25-11.25 30l15-11.25s-15 27.5-15 33.75 33.75-17.5 37.5-18.75 317.5 136.25 317.5 136.25 7.5-8.75 17.5-21.25 36.25-46.25 36.25-65-2.5-26.25-2.5-26.25c.405-49.6-3.75-98.75-30-118.75 3.75-1.25 22.5 5 26.25 5 0-3.75-17.5-33.75-45-37.5 1.25-6.25 13.75-12.5 18.75-13.75 0 0-30-22.5-51.25-12.5-12.5-11.25-28.75-26.25-36.25-30s-27.5-11.25-37.5-12.5l6.25 10c-7.5-6.25-46.25-15-61.25-10 0 3.75 5 3.75 5 3.75-27.925-3.35-142.905 18.345-176.25 112.5z" stroke="#1A1919" stroke-width="7.5" stroke-linecap="round" stroke-linejoin="round" fill="none"/><path d="M343.374 201.573c-1.25 3.75-7.5 46.25-10 55 0 0-12.5 58.75-7.5 76.25s22.5 48.75 38.75 71.25 38.75 42.5 51.25 50 37.5 6.25 42.5 6.25 13.75-1.25 13.75-1.25 26.25 7.5 30 7.5c3.75-2.5 33.75 2.5 86.25-47.5 2.5-7.5 11.25-28.75 15-42.5 0 0 12.5-16.25 15-21.25 3.75 3.75 3.75 3.75 12.5 3.75s33.75-15 50-55c3.75-16.25-2.5-56.25-16.25-55s-30 11.25-30 11.25-20-30-26.25-33.75l12.5-22.5s-1.25-28.75-20-42.5c-17.5 15-73.75 38.75-86.25 41.25s-41.25-6.25-51.25-8.75c-15 0-60 1.25-71.25-10-16.25 11.25-43.75 17.5-48.75 17.5" fill="#F4BB9D"/><path d="M343.374 201.573c-1.25 3.75-7.5 46.25-10 55 0 0-12.5 58.75-7.5 76.25s22.5 48.75 38.75 71.25 38.75 42.5 51.25 50 37.5 6.25 42.5 6.25 13.75-1.25 13.75-1.25 26.25 7.5 30 7.5c3.75-2.5 33.75 2.5 86.25-47.5 2.5-7.5 11.25-28.75 15-42.5 0 0 12.5-16.25 15-21.25 3.75 3.75 3.75 3.75 12.5 3.75s33.75-15 50-55c3.75-16.25-2.5-56.25-16.25-55s-30 11.25-30 11.25-20-30-26.25-33.75l12.5-22.5s-1.25-28.75-20-42.5c-17.5 15-73.75 38.75-86.25 41.25s-41.25-6.25-51.25-8.75c-15 0-60 1.25-71.25-10-16.25 11.25-43.75 17.5-48.75 17.5zm48.75-17.5c31.25-22.5 142.5-68.75 167.5-58.75" stroke="#1A1919" stroke-width="7.5" stroke-linecap="round" stroke-linejoin="round" fill="none"/><path d="M618.374 237.823c2.5 15-1.25 80-3.75 92.5 5-6.25 22.5-52.5 21.25-83.75" fill="#2D2118"/><path d="M618.374 237.823c2.5 15-1.25 80-3.75 92.5 5-6.25 22.5-52.5 21.25-83.75m2.5 66.25c5-3.75 8.75-6.25 6.25-10s-15-7.5-10-15 15-11.25 18.75-13.75 10 16.25 10 16.25m-272.5-20c-3.75 10-27.5 43.75-28.75 52.5s1.25 16.25 8.75 18.75 27.5 3.75 30-1.25m-12.5 35c7.5 5 22.5 13.75 26.25 13.75s38.75 6.25 55-2.5m57.5-187.5c6.25-6.25 25 3.75 23.75 31.25m-78.75 228.75c5-1.25 30-12.5 41.25-18.75m91.25-67.5c-3.75 5-20 20-23.75 25" stroke="#1A1919" stroke-width="7.5" stroke-linecap="round" stroke-linejoin="round" fill="none"/><path d="M496.289 288.913c.215 12.43-3.72 22.57-8.78 22.66-5.06.08-9.335-9.925-9.55-22.345-.215-12.42 3.715-22.565 8.78-22.65 5.055-.085 9.335 9.915 9.55 22.335m-126.25-28.75c.215 12.43-3.72 22.57-8.78 22.66-5.06.08-9.335-9.925-9.55-22.345-.215-12.42 3.715-22.565 8.78-22.65 5.055-.085 9.335 9.915 9.55 22.335" fill="#1A1919"/><path d="M534.334 347.188c-1.52 11.64-15.79 19.37-31.875 17.265-16.09-2.1-27.9-13.24-26.375-24.875 1.52-11.64 15.79-19.37 31.88-17.265 16.085 2.1 27.895 13.23 26.37 24.875m-174.88-39.36c-.45-9.82-10.07-17.645-22.7-19.49-3.95 10.225-6.345 18.85-7.45 25.37-.69 4.125-.72 9.99-.34 16.71.705.005 1.405.015 2.12-.02 16.205-.735 28.905-10.845 28.37-22.57" fill="#EB9174"/><path d="M472.529 79.058c-13.33-5-128.33 43.33-160 105" stroke="#1A1919" stroke-width="7.5" stroke-linecap="round" stroke-linejoin="round" fill="none"/><path d="m84.234 755.343 7.98 33.245 260.65 49.21-5.32-37.24-263.31-45.215" fill="#2C2C2B"/><path d="m84.234 755.343 7.98 33.245 260.65 49.21-5.32-37.24z" stroke="#1A1919" stroke-width="7.5" stroke-linecap="round" stroke-linejoin="round" fill="none"/><path d="m347.544 800.558 5.32 37.24 17.29-6.65-3.99-33.25-18.62 2.66" fill="#636463"/><path d="m347.544 800.558 5.32 37.24 17.29-6.65-3.99-33.25-18.62 2.66" stroke="#1A1919" stroke-width="7.5" stroke-linecap="round" stroke-linejoin="round" fill="none"/><path d="m370.154 831.148 219.425-29.26 9.31-17.29-231.395 29.26 2.66 17.29" fill="#777776"/><path d="m370.154 831.148 219.425-29.26 9.31-17.29-231.395 29.26z" stroke="#1A1919" stroke-width="7.5" stroke-linecap="round" stroke-linejoin="round" fill="none"/><path d="m598.889 784.598-231.395 29.26-1.33-11.97 234.06-27.93-1.335 10.64" fill="#777776"/><path d="m598.889 784.598-231.395 29.26-1.33-11.97 234.06-27.93z" stroke="#1A1919" stroke-width="7.5" stroke-linecap="round" stroke-linejoin="round" fill="none"/><path d="m366.164 801.888 234.06-27.93-3.995-9.305-244.695-34.58 14.63 71.815" fill="#8A8B8A"/><path d="m366.164 801.888 234.06-27.93-3.995-9.305-244.695-34.58z" stroke="#1A1919" stroke-width="7.5" stroke-linecap="round" stroke-linejoin="round" fill="none"/><path d="M379.464 760.663s-29.26 5.315-34.575 6.645m22.605 18.625c5.32-1.335 95.745-13.3 95.745-13.3l-103.725-15.96m47.875 10.635s-47.875 7.98-51.865 10.645m2.66-15.96c3.99 1.33 67.825 13.295 67.825 13.295m-87.775-10.635c5.32 1.325 59.845 15.955 59.845 15.955" stroke="#1A1919" stroke-width="5" stroke-linecap="round" stroke-linejoin="round" fill="none"/><path d="m314.364 512.838-20.01 9.78 55.85 283.26 19.95-5.32-55.79-287.72" fill="#CBCCCB"/><path d="m314.364 512.838-20.01 9.78 55.85 283.26 19.95-5.32z" stroke="#1A1919" stroke-width="7.5" stroke-linecap="round" stroke-linejoin="round" fill="none"/><path d="m296.114 531.563 54.09 274.315-273.34-48.04-72.5-236.945c-1.685-7.85.625-12.345.625-12.345l12.755-6.38 296.62 10.67-15.925 9.53c-4.255 1.065-2.52 4.565-2.325 9.195" fill="#B4B5B4"/><path d="m296.114 531.563 54.09 274.315-273.34-48.04-72.5-236.945c-1.685-7.85.625-12.345.625-12.345l12.755-6.38 296.62 10.67-15.925 9.53c-4.255 1.065-2.52 4.565-2.325 9.195zm-280.495-16.64c6.38 1.065 251.98 11.695 260.49 11.695" stroke="#1A1919" stroke-width="7.5" stroke-linecap="round" stroke-linejoin="round" fill="none"/><path d="M589.624 764.073c-7.5 0-52.5-2.5-58.75-2.5s-21.25 13.75-30 20c1.25 7.5 13.75 10 21.25 8.75-6.25 8.75-11.25 15-13.75 21.25s-7.5 25-5 36.25c1.085 4.88 7.5 5 12.5 0 1.25 5 2.5 7.5 8.75 8.75s12.5-3.75 12.5-3.75c1.25 3.75 1.25 6.25 7.5 7.5s16.25-3.75 16.25-3.75c1.25 7.5 2.5 8.75 7.5 7.5s21.25-7.5 28.75-12.5 15-11.25 15-11.25c6.915 4.605 29.765-1.41 35.255-6.29.455-.415.8-.82.995-1.21 2.5-5-2.5-12.5-2.5-12.5s-32.5-57.5-56.25-56.25" fill="#F4BB9D"/><path d="M589.624 764.073c-7.5 0-52.5-2.5-58.75-2.5s-21.25 13.75-30 20c1.25 7.5 13.75 10 21.25 8.75-6.25 8.75-11.25 15-13.75 21.25s-7.5 25-5 36.25c1.085 4.88 7.5 5 12.5 0 1.25 5 2.5 7.5 8.75 8.75s12.5-3.75 12.5-3.75c1.25 3.75 1.25 6.25 7.5 7.5s16.25-3.75 16.25-3.75c1.25 7.5 2.5 8.75 7.5 7.5s21.25-7.5 28.75-12.5 15-11.25 15-11.25c6.915 4.605 29.765-1.41 35.255-6.29.455-.415.8-.82.995-1.21 2.5-5-2.5-12.5-2.5-12.5s-32.5-57.5-56.25-56.25z" stroke="#1A1919" stroke-width="7.5" stroke-linecap="round" stroke-linejoin="round" fill="none"/><path d="M618.374 782.823c11.25 8.75 26.25 36.25 28.75 43.75l1.25 6.25s22.5-13.75 23.75-17.5c0 0-36.25-36.25-53.75-32.5" fill="#FFFFFE"/><path d="M618.374 782.823c11.25 8.75 26.25 36.25 28.75 43.75l1.25 6.25s22.5-13.75 23.75-17.5c0 0-36.25-36.25-53.75-32.5z" stroke="#1A1919" stroke-width="7.5" stroke-linecap="round" stroke-linejoin="round" fill="none"/><path d="M664.194 842.393c-13.75-23.75-63.32-73.32-78.32-80.82 10-10 45-36.25 58.75-41.25 0 0-5-8.75-3.75-13.75s12.5-17.5 18.75-20c-2.5-30-2.5-136.25 7.5-162.5s27.5-51.25 30-50c8.75 1.25 21.25 23.75 25 33.75s23.75 132.5 22.5 157.5c1.25 15-1.25 31.25-1.25 47.5s-35.845 89.57-79.18 129.57" fill="#464D5A"/><path d="M664.194 842.393c-13.75-23.75-63.32-73.32-78.32-80.82 10-10 45-36.25 58.75-41.25 0 0-5-8.75-3.75-13.75s12.5-17.5 18.75-20c-2.5-30-2.5-136.25 7.5-162.5s27.5-51.25 30-50c8.75 1.25 21.25 23.75 25 33.75s23.75 132.5 22.5 157.5c1.25 15-1.25 31.25-1.25 47.5s-35.845 89.57-79.18 129.57zm-114.57-67.07s-23.75 10-27.5 15m42.5 3.75c-3.75 2.5-25 15-25 15l-8.385 11.265m1.25-.625s-16.615 20.61-16.615 28.11m68.75-37.5c-3.75 2.5-23.75 17.5-23.75 17.5s-21.25 18.75-23.75 25m60-22.5c-3.75 3.75-26.25 23.75-36.25 26.25" stroke="#1A1919" stroke-width="7.5" stroke-linecap="round" stroke-linejoin="round" fill="none"/></svg>